<?xml version="1.0" encoding="UTF-8"?> <svg xmlns="http://www.w3.org/2000/svg" width="1240.329" height="378.693" viewBox="0 0 1240.329 378.693"><g id="New_Hydrogen_Logo_Final_Outlined_1_" data-name="New Hydrogen Logo Final Outlined (1)" transform="translate(-388.047 -349.306)"><path id="Path_14" data-name="Path 14" d="M922.208,462.437,902.717,375.3,897.6,406.606c-2.669-2.589-5.417-5.1-8.163-7.6a208.649,208.649,0,0,0-27.078-19.876A200.888,200.888,0,0,0,800.583,354.1a203.172,203.172,0,0,0-66.167-3.589c-3.406.385-6.8.887-10.173,1.447l-.024-.023c-91.8,13.146-137.245,101.172-137.245,101.172l8.543,5.289c48.254-59.683,102.632-74.868,124.194-78.661l.1.192q8.543-1.529,17.2-2.205a174.716,174.716,0,0,1,56.706,5.082,170.26,170.26,0,0,1,51.61,23.059,176.336,176.336,0,0,1,22.145,17.487q1.73,1.7,3.453,3.409l-34.985-.894Z" fill="#0994d9"></path><path id="Path_15" data-name="Path 15" d="M586.974,614.868l19.491,87.14,5.121-31.309c2.669,2.589,5.417,5.1,8.163,7.6a208.649,208.649,0,0,0,27.078,19.876A200.887,200.887,0,0,0,708.6,723.205a203.172,203.172,0,0,0,66.167,3.589c3.406-.385,6.795-.887,10.173-1.447l.024.023C876.759,712.224,922.208,624.2,922.208,624.2l-8.543-5.289c-48.254,59.683-102.632,74.868-124.194,78.661l-.1-.192q-8.543,1.528-17.2,2.205a174.715,174.715,0,0,1-56.706-5.082,170.262,170.262,0,0,1-51.61-23.059,176.345,176.345,0,0,1-22.145-17.487q-1.73-1.7-3.453-3.409l34.985.894Z" fill="#8fd300"></path><path id="Path_16" data-name="Path 16" d="M837.68,459.78h17.664v134.4H837.68V533.7H772.4v60.48H754.543V459.78H772.4V516.8H837.68Z" fill="#8fd300"></path><path id="Path_17" data-name="Path 17" d="M963.609,479.423l-40.657,68.363V594.18H907.706V547.622l-40.493-68.2h17.049l31.218,53.862,31.079-53.862Z" fill="#8fd300"></path><path id="Path_18" data-name="Path 18" d="M1021.969,479.423q23.444,0,38.936,16.64T1076.4,536.8q0,24.1-15.492,40.739t-38.936,16.64H977.214V479.423Zm0,100.33q17.539,0,28.689-12.295t11.149-30.657q0-18.359-11.149-30.656t-28.689-12.3H992.461v85.9Z" fill="#8fd300"></path><path id="Path_19" data-name="Path 19" d="M1162.955,594.18l-25.7-43.935h-27.085V594.18H1094.92V479.423h45.9a34.558,34.558,0,0,1,25.247,10.41,34.987,34.987,0,0,1,3.853,45.493,35.559,35.559,0,0,1-17.13,12.952l27.048,45.9Zm-52.788-100.494v42.788h30.655a19.257,19.257,0,0,0,14.51-6.312A21.259,21.259,0,0,0,1161.315,515a20.983,20.983,0,0,0-5.983-15.082,19.38,19.38,0,0,0-14.51-6.23Z" fill="#8fd300"></path><path id="Path_20" data-name="Path 20" d="M1290.09,578.934q-17.3,17.379-42.214,17.378t-42.132-17.378Q1188.53,561.56,1188.53,536.8q0-24.918,17.214-42.215t42.132-17.3q24.918,0,42.214,17.3t17.3,42.215q0,24.756-17.3,42.132m-73.772-10.41q12.7,12.871,31.558,12.869t31.558-12.869q12.7-12.868,12.705-31.722,0-19.016-12.705-31.886t-31.558-12.87q-18.853,0-31.558,12.87T1203.612,536.8q0,18.853,12.706,31.722" fill="#8fd300"></path><path id="Path_21" data-name="Path 21" d="M1436.4,537.293v6.885q0,22.463-15.41,37.3t-40.821,14.836q-26.232,0-43.362-17.295T1319.679,536.8q0-24.917,17.132-42.214t43.034-17.3a57.583,57.583,0,0,1,29.181,7.624A54.419,54.419,0,0,1,1429.518,505L1416.4,512.7a36.944,36.944,0,0,0-14.836-15,43.406,43.406,0,0,0-21.886-5.656q-19.672,0-32.3,12.869T1334.762,536.8q0,19.02,12.705,31.8t32.87,12.787q17.214,0,27.87-8.443a34.424,34.424,0,0,0,12.951-21.886h-42.132V537.293Z" fill="#8fd300"></path><path id="Path_22" data-name="Path 22" d="M1470.174,579.753h53.28V594.18h-68.526V479.423h67.707v14.426h-52.461V529.1h48.362v14.263h-48.362Z" fill="#8fd300"></path><path id="Path_23" data-name="Path 23" d="M1613.129,479.423h15.246V594.18h-12.3l-59.017-85.74v85.74h-15.247V479.423h11.791l59.522,86.181Z" fill="#8fd300"></path><path id="Path_24" data-name="Path 24" d="M471.568,459.647h17.856v134.4h-14.4L405.9,493.631V594.047H388.047v-134.4h13.81l69.711,100.932Z" fill="#0994d9"></path><path id="Path_25" data-name="Path 25" d="M519.844,579.62h53.28v14.427H504.6V479.289h67.707v14.427H519.844v35.247h48.362v14.262H519.844Z" fill="#0994d9"></path><path id="Path_26" data-name="Path 26" d="M615.387,594.047l-32.1-114.758h16.03l26.263,94.425,27.873-94.425h15.4l27.875,94.442,26.232-94.442h15.18L706.078,594.047H688.373l-27.3-91.919-27.3,91.919Z" fill="#0994d9"></path></g></svg> 